<mxfile host="Electron" modified="2023-05-25T16:02:18.117Z" agent="Mozilla/5.0 (Windows NT 10.0; Win64; x64) AppleWebKit/537.36 (KHTML, like Gecko) draw.io/21.2.8 Chrome/112.0.5615.165 Electron/24.2.0 Safari/537.36" etag="xsfBAtBTrjvwQkw4mg9h" version="21.2.8" type="device">
  <diagram name="Page-1" id="MdEuOtCj4I_t9FkL3FR8">
    <mxGraphModel dx="1755" dy="2073" grid="1" gridSize="10" guides="1" tooltips="1" connect="1" arrows="1" fold="1" page="1" pageScale="1" pageWidth="827" pageHeight="1169" background="none" math="0" shadow="1">
      <root>
        <mxCell id="0" />
        <mxCell id="1" parent="0" />
        <mxCell id="0CCEeKjSMCbbuPQ71y9K-18" value="&lt;u&gt;Navbar&lt;/u&gt;" style="rounded=0;whiteSpace=wrap;html=1;align=center;glass=0;sketch=1;curveFitting=1;jiggle=2;shadow=1;fontStyle=0" parent="1" vertex="1">
          <mxGeometry x="-738" y="-821.02" width="575" height="70" as="geometry" />
        </mxCell>
        <mxCell id="Lo22MOqQSDvuO6hgZR-Z-98" value="" style="edgeStyle=orthogonalEdgeStyle;rounded=0;orthogonalLoop=1;jettySize=auto;html=1;sketch=1;curveFitting=1;jiggle=2;curved=1;entryX=1.005;entryY=0.56;entryDx=0;entryDy=0;entryPerimeter=0;" parent="1" source="9" target="Lo22MOqQSDvuO6hgZR-Z-50" edge="1">
          <mxGeometry relative="1" as="geometry" />
        </mxCell>
        <mxCell id="9" value="&lt;div style=&quot;font-size: 12px;&quot;&gt;&lt;span style=&quot;font-size: 12px; background-color: initial;&quot;&gt;Add Button&lt;/span&gt;&lt;/div&gt;" style="rounded=0;whiteSpace=wrap;html=1;fontStyle=0;gradientColor=none;glass=0;shadow=0;sketch=1;curveFitting=1;jiggle=2;hachureGap=4;fontFamily=Architects Daughter;fontSize=12;align=center;verticalAlign=middle;fontSource=https%3A%2F%2Ffonts.googleapis.com%2Fcss%3Ffamily%3DArchitects%2BDaughter;" parent="1" vertex="1">
          <mxGeometry x="-658" y="-801.02" width="120" height="30" as="geometry" />
        </mxCell>
        <mxCell id="Lo22MOqQSDvuO6hgZR-Z-101" value="" style="edgeStyle=orthogonalEdgeStyle;rounded=0;orthogonalLoop=1;jettySize=auto;html=1;sketch=1;curveFitting=1;jiggle=2;exitX=0.482;exitY=1.02;exitDx=0;exitDy=0;exitPerimeter=0;curved=1;entryX=0.494;entryY=0.024;entryDx=0;entryDy=0;entryPerimeter=0;" parent="1" source="Lo22MOqQSDvuO6hgZR-Z-50" target="Lo22MOqQSDvuO6hgZR-Z-51" edge="1">
          <mxGeometry relative="1" as="geometry">
            <mxPoint x="-270" y="-387.02" as="targetPoint" />
          </mxGeometry>
        </mxCell>
        <mxCell id="Lo22MOqQSDvuO6hgZR-Z-50" value="&lt;font face=&quot;Lucida Console&quot;&gt;OPEN_ADD_FORM&lt;/font&gt;" style="text;html=1;align=center;verticalAlign=middle;resizable=0;points=[];autosize=1;strokeColor=default;fillColor=none;rounded=0;shadow=0;sketch=1;curveFitting=1;jiggle=2;" parent="1" vertex="1">
          <mxGeometry x="-658" y="-731.02" width="120" height="30" as="geometry" />
        </mxCell>
        <mxCell id="Lo22MOqQSDvuO6hgZR-Z-102" value="" style="edgeStyle=orthogonalEdgeStyle;rounded=0;orthogonalLoop=1;jettySize=auto;html=1;curved=1;shadow=0;sketch=1;curveFitting=1;jiggle=2;" parent="1" source="Lo22MOqQSDvuO6hgZR-Z-51" target="Lo22MOqQSDvuO6hgZR-Z-75" edge="1">
          <mxGeometry relative="1" as="geometry" />
        </mxCell>
        <mxCell id="0CCEeKjSMCbbuPQ71y9K-34" value="" style="edgeStyle=orthogonalEdgeStyle;rounded=0;orthogonalLoop=1;jettySize=auto;html=1;sketch=1;curveFitting=1;jiggle=2;curved=1;" parent="1" source="Lo22MOqQSDvuO6hgZR-Z-51" target="0CCEeKjSMCbbuPQ71y9K-33" edge="1">
          <mxGeometry relative="1" as="geometry" />
        </mxCell>
        <mxCell id="Lo22MOqQSDvuO6hgZR-Z-51" value="&lt;font face=&quot;Lucida Console&quot;&gt;SUBMIT&lt;/font&gt;" style="text;html=1;align=center;verticalAlign=middle;resizable=0;points=[];autosize=1;strokeColor=default;fillColor=none;sketch=1;curveFitting=1;jiggle=2;rounded=0;glass=0;shadow=0;" parent="1" vertex="1">
          <mxGeometry x="-633" y="-671.02" width="70" height="30" as="geometry" />
        </mxCell>
        <mxCell id="0CCEeKjSMCbbuPQ71y9K-30" value="" style="edgeStyle=orthogonalEdgeStyle;rounded=0;orthogonalLoop=1;jettySize=auto;html=1;sketch=1;curveFitting=1;jiggle=2;curved=1;" parent="1" source="Lo22MOqQSDvuO6hgZR-Z-57" target="0CCEeKjSMCbbuPQ71y9K-29" edge="1">
          <mxGeometry relative="1" as="geometry" />
        </mxCell>
        <mxCell id="Lo22MOqQSDvuO6hgZR-Z-57" value="JSON" style="swimlane;fontStyle=0;childLayout=stackLayout;horizontal=1;startSize=26;fillColor=none;horizontalStack=0;resizeParent=1;resizeParentMax=0;resizeLast=0;collapsible=1;marginBottom=0;html=1;labelBackgroundColor=none;labelBorderColor=none;sketch=1;curveFitting=1;jiggle=2;align=center;fontFamily=Comic Sans MS;" parent="1" vertex="1">
          <mxGeometry x="-808" y="-601.02" width="190" height="182" as="geometry">
            <mxRectangle x="-730" y="-870" width="70" height="40" as="alternateBounds" />
          </mxGeometry>
        </mxCell>
        <mxCell id="Lo22MOqQSDvuO6hgZR-Z-58" value="id: Date.now()" style="text;strokeColor=none;fillColor=none;align=left;verticalAlign=top;spacingLeft=4;spacingRight=4;overflow=hidden;rotatable=0;points=[[0,0.5],[1,0.5]];portConstraint=eastwest;html=1;labelBackgroundColor=none;labelBorderColor=none;sketch=1;curveFitting=1;jiggle=2;fontFamily=Lucida Console;" parent="Lo22MOqQSDvuO6hgZR-Z-57" vertex="1">
          <mxGeometry y="26" width="190" height="26" as="geometry" />
        </mxCell>
        <mxCell id="Lo22MOqQSDvuO6hgZR-Z-75" value="created: Date.now({...})" style="text;strokeColor=none;fillColor=none;align=left;verticalAlign=top;spacingLeft=4;spacingRight=4;overflow=hidden;rotatable=0;points=[[0,0.5],[1,0.5]];portConstraint=eastwest;html=1;labelBackgroundColor=none;labelBorderColor=none;sketch=1;curveFitting=1;jiggle=2;shadow=0;fontFamily=Lucida Console;" parent="Lo22MOqQSDvuO6hgZR-Z-57" vertex="1">
          <mxGeometry y="52" width="190" height="26" as="geometry" />
        </mxCell>
        <mxCell id="Lo22MOqQSDvuO6hgZR-Z-59" value="title: String" style="text;strokeColor=none;fillColor=none;align=left;verticalAlign=top;spacingLeft=4;spacingRight=4;overflow=hidden;rotatable=0;points=[[0,0.5],[1,0.5]];portConstraint=eastwest;html=1;labelBackgroundColor=none;labelBorderColor=none;sketch=1;curveFitting=1;jiggle=2;fontFamily=Lucida Console;" parent="Lo22MOqQSDvuO6hgZR-Z-57" vertex="1">
          <mxGeometry y="78" width="190" height="26" as="geometry" />
        </mxCell>
        <mxCell id="Lo22MOqQSDvuO6hgZR-Z-60" value="description: String" style="text;strokeColor=none;fillColor=none;align=left;verticalAlign=top;spacingLeft=4;spacingRight=4;overflow=hidden;rotatable=0;points=[[0,0.5],[1,0.5]];portConstraint=eastwest;html=1;labelBackgroundColor=none;labelBorderColor=none;sketch=1;curveFitting=1;jiggle=2;fontFamily=Lucida Console;" parent="Lo22MOqQSDvuO6hgZR-Z-57" vertex="1">
          <mxGeometry y="104" width="190" height="26" as="geometry" />
        </mxCell>
        <mxCell id="Lo22MOqQSDvuO6hgZR-Z-73" value="priority: String" style="text;strokeColor=none;fillColor=none;align=left;verticalAlign=top;spacingLeft=4;spacingRight=4;overflow=hidden;rotatable=0;points=[[0,0.5],[1,0.5]];portConstraint=eastwest;html=1;labelBackgroundColor=none;labelBorderColor=none;sketch=1;curveFitting=1;jiggle=2;fontFamily=Lucida Console;" parent="Lo22MOqQSDvuO6hgZR-Z-57" vertex="1">
          <mxGeometry y="130" width="190" height="26" as="geometry" />
        </mxCell>
        <mxCell id="Lo22MOqQSDvuO6hgZR-Z-74" value="category: String" style="text;strokeColor=none;fillColor=none;align=left;verticalAlign=top;spacingLeft=4;spacingRight=4;overflow=hidden;rotatable=0;points=[[0,0.5],[1,0.5]];portConstraint=eastwest;html=1;labelBackgroundColor=none;labelBorderColor=none;sketch=1;curveFitting=1;jiggle=2;fontFamily=Lucida Console;" parent="Lo22MOqQSDvuO6hgZR-Z-57" vertex="1">
          <mxGeometry y="156" width="190" height="26" as="geometry" />
        </mxCell>
        <mxCell id="Lo22MOqQSDvuO6hgZR-Z-99" value="" style="edgeStyle=orthogonalEdgeStyle;rounded=0;orthogonalLoop=1;jettySize=auto;html=1;sketch=1;curveFitting=1;jiggle=2;curved=1;entryX=0;entryY=0.433;entryDx=0;entryDy=0;entryPerimeter=0;" parent="1" source="Lo22MOqQSDvuO6hgZR-Z-84" target="Lo22MOqQSDvuO6hgZR-Z-89" edge="1">
          <mxGeometry relative="1" as="geometry" />
        </mxCell>
        <mxCell id="0CCEeKjSMCbbuPQ71y9K-25" value="" style="edgeStyle=orthogonalEdgeStyle;rounded=0;orthogonalLoop=1;jettySize=auto;html=1;sketch=1;curveFitting=1;jiggle=2;curved=1;" parent="1" source="Lo22MOqQSDvuO6hgZR-Z-89" target="Lo22MOqQSDvuO6hgZR-Z-95" edge="1">
          <mxGeometry relative="1" as="geometry" />
        </mxCell>
        <mxCell id="Lo22MOqQSDvuO6hgZR-Z-89" value="&lt;font face=&quot;Lucida Console&quot;&gt;OPEN_EDIT_FORM&lt;/font&gt;" style="text;html=1;align=center;verticalAlign=middle;resizable=0;points=[];autosize=1;strokeColor=default;fillColor=none;rounded=0;shadow=0;sketch=1;curveFitting=1;jiggle=2;" parent="1" vertex="1">
          <mxGeometry x="-498" y="-581.02" width="120" height="30" as="geometry" />
        </mxCell>
        <mxCell id="0CCEeKjSMCbbuPQ71y9K-27" value="" style="edgeStyle=orthogonalEdgeStyle;rounded=0;orthogonalLoop=1;jettySize=auto;html=1;curved=1;sketch=1;curveFitting=1;jiggle=2;entryX=0.01;entryY=0.398;entryDx=0;entryDy=0;entryPerimeter=0;" parent="1" source="Lo22MOqQSDvuO6hgZR-Z-95" target="Lo22MOqQSDvuO6hgZR-Z-103" edge="1">
          <mxGeometry relative="1" as="geometry">
            <mxPoint x="-257.96999999999997" y="-321.02" as="targetPoint" />
          </mxGeometry>
        </mxCell>
        <mxCell id="0CCEeKjSMCbbuPQ71y9K-36" value="" style="edgeStyle=orthogonalEdgeStyle;rounded=0;orthogonalLoop=1;jettySize=auto;html=1;sketch=1;curveFitting=1;jiggle=2;curved=1;" parent="1" source="Lo22MOqQSDvuO6hgZR-Z-95" target="0CCEeKjSMCbbuPQ71y9K-35" edge="1">
          <mxGeometry relative="1" as="geometry" />
        </mxCell>
        <mxCell id="Lo22MOqQSDvuO6hgZR-Z-95" value="&lt;font face=&quot;Lucida Console&quot;&gt;SUBMIT&lt;/font&gt;" style="text;html=1;align=center;verticalAlign=middle;resizable=0;points=[];autosize=1;strokeColor=default;fillColor=none;sketch=1;curveFitting=1;jiggle=2;rounded=0;glass=0;shadow=0;" parent="1" vertex="1">
          <mxGeometry x="-322.97999999999996" y="-441.02" width="70" height="30" as="geometry" />
        </mxCell>
        <mxCell id="HnntwRs7b9SrRsx0hjF1-13" value="" style="edgeStyle=orthogonalEdgeStyle;rounded=0;orthogonalLoop=1;jettySize=auto;html=1;curved=1;sketch=1;curveFitting=1;jiggle=2;" edge="1" parent="1" source="Lo22MOqQSDvuO6hgZR-Z-103" target="0CCEeKjSMCbbuPQ71y9K-29">
          <mxGeometry relative="1" as="geometry" />
        </mxCell>
        <mxCell id="Lo22MOqQSDvuO6hgZR-Z-103" value="JSON" style="swimlane;fontStyle=0;childLayout=stackLayout;horizontal=1;startSize=26;fillColor=none;horizontalStack=0;resizeParent=1;resizeParentMax=0;resizeLast=0;collapsible=1;marginBottom=0;html=1;labelBackgroundColor=none;labelBorderColor=none;sketch=1;curveFitting=1;jiggle=2;align=center;fontFamily=Comic Sans MS;" parent="1" vertex="1">
          <mxGeometry x="-470.99999999999994" y="-356.02" width="280" height="182" as="geometry">
            <mxRectangle x="-329.96999999999997" y="-584.5" width="70" height="40" as="alternateBounds" />
          </mxGeometry>
        </mxCell>
        <mxCell id="Lo22MOqQSDvuO6hgZR-Z-104" value="id: state(issueId)" style="text;strokeColor=none;fillColor=none;align=left;verticalAlign=top;spacingLeft=4;spacingRight=4;overflow=hidden;rotatable=0;points=[[0,0.5],[1,0.5]];portConstraint=eastwest;html=1;labelBackgroundColor=none;labelBorderColor=none;sketch=1;curveFitting=1;jiggle=2;fontFamily=Lucida Console;" parent="Lo22MOqQSDvuO6hgZR-Z-103" vertex="1">
          <mxGeometry y="26" width="280" height="26" as="geometry" />
        </mxCell>
        <mxCell id="Lo22MOqQSDvuO6hgZR-Z-105" value="created: now" style="text;strokeColor=none;fillColor=none;align=left;verticalAlign=top;spacingLeft=4;spacingRight=4;overflow=hidden;rotatable=0;points=[[0,0.5],[1,0.5]];portConstraint=eastwest;html=1;labelBackgroundColor=none;labelBorderColor=none;sketch=1;curveFitting=1;jiggle=2;shadow=0;fontFamily=Lucida Console;" parent="Lo22MOqQSDvuO6hgZR-Z-103" vertex="1">
          <mxGeometry y="52" width="280" height="26" as="geometry" />
        </mxCell>
        <mxCell id="Lo22MOqQSDvuO6hgZR-Z-106" value="title: String" style="text;strokeColor=none;fillColor=none;align=left;verticalAlign=top;spacingLeft=4;spacingRight=4;overflow=hidden;rotatable=0;points=[[0,0.5],[1,0.5]];portConstraint=eastwest;html=1;labelBackgroundColor=none;labelBorderColor=none;sketch=1;curveFitting=1;jiggle=2;fontFamily=Lucida Console;" parent="Lo22MOqQSDvuO6hgZR-Z-103" vertex="1">
          <mxGeometry y="78" width="280" height="26" as="geometry" />
        </mxCell>
        <mxCell id="Lo22MOqQSDvuO6hgZR-Z-107" value="description: String" style="text;strokeColor=none;fillColor=none;align=left;verticalAlign=top;spacingLeft=4;spacingRight=4;overflow=hidden;rotatable=0;points=[[0,0.5],[1,0.5]];portConstraint=eastwest;html=1;labelBackgroundColor=none;labelBorderColor=none;sketch=1;curveFitting=1;jiggle=2;fontFamily=Lucida Console;" parent="Lo22MOqQSDvuO6hgZR-Z-103" vertex="1">
          <mxGeometry y="104" width="280" height="26" as="geometry" />
        </mxCell>
        <mxCell id="Lo22MOqQSDvuO6hgZR-Z-108" value="priority: String" style="text;strokeColor=none;fillColor=none;align=left;verticalAlign=top;spacingLeft=4;spacingRight=4;overflow=hidden;rotatable=0;points=[[0,0.5],[1,0.5]];portConstraint=eastwest;html=1;labelBackgroundColor=none;labelBorderColor=none;sketch=1;curveFitting=1;jiggle=2;fontFamily=Lucida Console;" parent="Lo22MOqQSDvuO6hgZR-Z-103" vertex="1">
          <mxGeometry y="130" width="280" height="26" as="geometry" />
        </mxCell>
        <mxCell id="Lo22MOqQSDvuO6hgZR-Z-109" value="category: String" style="text;strokeColor=none;fillColor=none;align=left;verticalAlign=top;spacingLeft=4;spacingRight=4;overflow=hidden;rotatable=0;points=[[0,0.5],[1,0.5]];portConstraint=eastwest;html=1;labelBackgroundColor=none;labelBorderColor=none;sketch=1;curveFitting=1;jiggle=2;fontFamily=Lucida Console;" parent="Lo22MOqQSDvuO6hgZR-Z-103" vertex="1">
          <mxGeometry y="156" width="280" height="26" as="geometry" />
        </mxCell>
        <mxCell id="0CCEeKjSMCbbuPQ71y9K-13" value="" style="edgeStyle=orthogonalEdgeStyle;rounded=0;orthogonalLoop=1;jettySize=auto;html=1;entryX=1;entryY=0.5;entryDx=0;entryDy=0;sketch=1;curveFitting=1;jiggle=2;curved=1;" parent="1" source="Lo22MOqQSDvuO6hgZR-Z-111" target="9" edge="1">
          <mxGeometry relative="1" as="geometry" />
        </mxCell>
        <mxCell id="Lo22MOqQSDvuO6hgZR-Z-111" value="User" style="triangle;whiteSpace=wrap;html=1;align=left;sketch=1;curveFitting=1;jiggle=2;dashed=1;dashPattern=1 4;fillColor=#6d8764;fontColor=default;strokeColor=#3A5431;gradientColor=none;rounded=0;fontSize=11;fontStyle=0;labelBackgroundColor=none;" parent="1" vertex="1">
          <mxGeometry x="-808" y="-871.02" width="40" height="60" as="geometry" />
        </mxCell>
        <mxCell id="0CCEeKjSMCbbuPQ71y9K-21" value="Issue" style="rounded=0;whiteSpace=wrap;html=1;fontStyle=4;sketch=1;curveFitting=1;jiggle=2;fillColor=#76608a;fontColor=#ffffff;strokeColor=#432D57;shadow=0;glass=0;gradientColor=none;fillStyle=dashed;" parent="1" vertex="1">
          <mxGeometry x="-347.97" y="-701.02" width="329.97" height="110" as="geometry" />
        </mxCell>
        <mxCell id="Lo22MOqQSDvuO6hgZR-Z-84" value="&lt;div style=&quot;text-align: justify;&quot;&gt;&lt;span style=&quot;font-family: &amp;quot;Lucida Console&amp;quot;; background-color: initial;&quot;&gt;&lt;font style=&quot;font-size: 12px;&quot;&gt;Edit Btn&lt;/font&gt;&lt;/span&gt;&lt;/div&gt;" style="rounded=1;whiteSpace=wrap;html=1;fontStyle=0;gradientColor=none;glass=0;shadow=0;sketch=1;curveFitting=1;jiggle=2;hachureGap=4;fontFamily=Architects Daughter;fontSource=https%3A%2F%2Ffonts.googleapis.com%2Fcss%3Ffamily%3DArchitects%2BDaughter;fontSize=20;" parent="1" vertex="1">
          <mxGeometry x="-332.96" y="-631.02" width="74.96" height="30" as="geometry" />
        </mxCell>
        <mxCell id="0CCEeKjSMCbbuPQ71y9K-29" value="Local&lt;br&gt;Storage" style="shape=cylinder3;whiteSpace=wrap;html=1;boundedLbl=1;backgroundOutline=1;size=15;fillColor=#1ba1e2;strokeColor=#006EAF;sketch=1;curveFitting=1;jiggle=2;fontColor=#ffffff;" parent="1" vertex="1">
          <mxGeometry x="-558" y="-499.02" width="60" height="80" as="geometry" />
        </mxCell>
        <mxCell id="0CCEeKjSMCbbuPQ71y9K-33" value="&lt;font face=&quot;Lucida Console&quot;&gt;CLOSE_ANY_FORM&lt;/font&gt;" style="text;html=1;align=center;verticalAlign=middle;resizable=0;points=[];autosize=1;strokeColor=default;fillColor=none;rounded=0;shadow=0;sketch=1;curveFitting=1;jiggle=2;" parent="1" vertex="1">
          <mxGeometry x="-510.5000000000002" y="-671.02" width="120" height="30" as="geometry" />
        </mxCell>
        <mxCell id="0CCEeKjSMCbbuPQ71y9K-35" value="&lt;font face=&quot;Lucida Console&quot;&gt;CLOSE_ANY_FORM&lt;/font&gt;" style="text;html=1;align=center;verticalAlign=middle;resizable=0;points=[];autosize=1;strokeColor=default;fillColor=none;rounded=0;shadow=0;sketch=1;curveFitting=1;jiggle=2;" parent="1" vertex="1">
          <mxGeometry x="-471.00000000000017" y="-441.02" width="120" height="30" as="geometry" />
        </mxCell>
        <mxCell id="HnntwRs7b9SrRsx0hjF1-17" value="" style="edgeStyle=orthogonalEdgeStyle;rounded=0;orthogonalLoop=1;jettySize=auto;html=1;curved=1;sketch=1;curveFitting=1;jiggle=2;" edge="1" parent="1" source="HnntwRs7b9SrRsx0hjF1-14" target="HnntwRs7b9SrRsx0hjF1-16">
          <mxGeometry relative="1" as="geometry" />
        </mxCell>
        <mxCell id="HnntwRs7b9SrRsx0hjF1-14" value="&lt;div style=&quot;text-align: justify;&quot;&gt;&lt;span style=&quot;font-family: &amp;quot;Lucida Console&amp;quot;; background-color: initial;&quot;&gt;&lt;font style=&quot;font-size: 12px;&quot;&gt;Complete Btn&lt;/font&gt;&lt;/span&gt;&lt;/div&gt;" style="rounded=1;whiteSpace=wrap;html=1;fontStyle=0;gradientColor=none;glass=0;shadow=0;sketch=1;curveFitting=1;jiggle=2;hachureGap=4;fontFamily=Architects Daughter;fontSource=https%3A%2F%2Ffonts.googleapis.com%2Fcss%3Ffamily%3DArchitects%2BDaughter;fontSize=20;" vertex="1" parent="1">
          <mxGeometry x="-248" y="-631.02" width="100" height="30" as="geometry" />
        </mxCell>
        <mxCell id="HnntwRs7b9SrRsx0hjF1-22" value="" style="edgeStyle=orthogonalEdgeStyle;rounded=0;orthogonalLoop=1;jettySize=auto;html=1;curved=1;sketch=1;curveFitting=1;jiggle=2;" edge="1" parent="1" source="HnntwRs7b9SrRsx0hjF1-15" target="HnntwRs7b9SrRsx0hjF1-21">
          <mxGeometry relative="1" as="geometry" />
        </mxCell>
        <mxCell id="HnntwRs7b9SrRsx0hjF1-15" value="&lt;div style=&quot;text-align: justify;&quot;&gt;&lt;span style=&quot;font-family: &amp;quot;Lucida Console&amp;quot;; background-color: initial;&quot;&gt;&lt;font style=&quot;font-size: 12px;&quot;&gt;Delete Btn&lt;/font&gt;&lt;/span&gt;&lt;/div&gt;" style="rounded=1;whiteSpace=wrap;html=1;fontStyle=0;gradientColor=none;glass=0;shadow=0;sketch=1;curveFitting=1;jiggle=2;hachureGap=4;fontFamily=Architects Daughter;fontSource=https%3A%2F%2Ffonts.googleapis.com%2Fcss%3Ffamily%3DArchitects%2BDaughter;fontSize=20;" vertex="1" parent="1">
          <mxGeometry x="-138" y="-631.02" width="100" height="30" as="geometry" />
        </mxCell>
        <mxCell id="HnntwRs7b9SrRsx0hjF1-20" value="" style="edgeStyle=orthogonalEdgeStyle;rounded=0;orthogonalLoop=1;jettySize=auto;html=1;entryX=1;entryY=0.5;entryDx=0;entryDy=0;entryPerimeter=0;curved=1;sketch=1;curveFitting=1;jiggle=2;" edge="1" parent="1" source="HnntwRs7b9SrRsx0hjF1-16" target="0CCEeKjSMCbbuPQ71y9K-29">
          <mxGeometry relative="1" as="geometry">
            <mxPoint x="-308" y="-484.02" as="targetPoint" />
          </mxGeometry>
        </mxCell>
        <mxCell id="HnntwRs7b9SrRsx0hjF1-16" value="&lt;font face=&quot;Lucida Console&quot;&gt;COMPLETE&lt;/font&gt;" style="text;html=1;align=center;verticalAlign=middle;resizable=0;points=[];autosize=1;strokeColor=default;fillColor=none;rounded=0;shadow=0;sketch=1;curveFitting=1;jiggle=2;" vertex="1" parent="1">
          <mxGeometry x="-248" y="-541.02" width="80" height="30" as="geometry" />
        </mxCell>
        <mxCell id="HnntwRs7b9SrRsx0hjF1-23" value="" style="edgeStyle=orthogonalEdgeStyle;rounded=0;orthogonalLoop=1;jettySize=auto;html=1;entryX=0.5;entryY=0;entryDx=0;entryDy=0;entryPerimeter=0;curved=1;sketch=1;curveFitting=1;jiggle=2;" edge="1" parent="1" source="HnntwRs7b9SrRsx0hjF1-21" target="0CCEeKjSMCbbuPQ71y9K-29">
          <mxGeometry relative="1" as="geometry" />
        </mxCell>
        <mxCell id="HnntwRs7b9SrRsx0hjF1-21" value="&lt;font face=&quot;Lucida Console&quot;&gt;DELETE&lt;/font&gt;" style="text;html=1;align=center;verticalAlign=middle;resizable=0;points=[];autosize=1;strokeColor=default;fillColor=none;rounded=0;shadow=0;sketch=1;curveFitting=1;jiggle=2;" vertex="1" parent="1">
          <mxGeometry x="-123" y="-499.02" width="70" height="30" as="geometry" />
        </mxCell>
        <mxCell id="HnntwRs7b9SrRsx0hjF1-24" value="&lt;div style=&quot;font-size: 12px;&quot;&gt;&lt;span style=&quot;font-size: 12px; background-color: initial;&quot;&gt;Board&lt;/span&gt;&lt;/div&gt;" style="rounded=0;whiteSpace=wrap;html=1;fontStyle=0;gradientColor=none;glass=0;shadow=0;sketch=1;curveFitting=1;jiggle=2;hachureGap=4;fontFamily=Architects Daughter;fontSize=12;align=center;verticalAlign=middle;fontSource=https%3A%2F%2Ffonts.googleapis.com%2Fcss%3Ffamily%3DArchitects%2BDaughter;" vertex="1" parent="1">
          <mxGeometry x="-413" y="-801.02" width="53" height="30" as="geometry" />
        </mxCell>
        <mxCell id="HnntwRs7b9SrRsx0hjF1-28" value="" style="edgeStyle=orthogonalEdgeStyle;rounded=0;sketch=1;hachureGap=4;jiggle=2;curveFitting=1;orthogonalLoop=1;jettySize=auto;html=1;fontFamily=Architects Daughter;fontSource=https%3A%2F%2Ffonts.googleapis.com%2Fcss%3Ffamily%3DArchitects%2BDaughter;fontSize=16;curved=1;entryX=0.597;entryY=1.007;entryDx=0;entryDy=0;entryPerimeter=0;" edge="1" parent="1" source="HnntwRs7b9SrRsx0hjF1-25" target="HnntwRs7b9SrRsx0hjF1-29">
          <mxGeometry relative="1" as="geometry">
            <mxPoint x="-231" y="-871.02" as="targetPoint" />
          </mxGeometry>
        </mxCell>
        <mxCell id="HnntwRs7b9SrRsx0hjF1-25" value="&lt;div style=&quot;font-size: 12px;&quot;&gt;&lt;span style=&quot;font-size: 12px; background-color: initial;&quot;&gt;Statics&lt;/span&gt;&lt;/div&gt;" style="rounded=0;whiteSpace=wrap;html=1;fontStyle=0;gradientColor=none;glass=0;shadow=0;sketch=1;curveFitting=1;jiggle=2;hachureGap=4;fontFamily=Architects Daughter;fontSize=12;align=center;verticalAlign=middle;fontSource=https%3A%2F%2Ffonts.googleapis.com%2Fcss%3Ffamily%3DArchitects%2BDaughter;" vertex="1" parent="1">
          <mxGeometry x="-347.97" y="-801.02" width="59.97" height="30" as="geometry" />
        </mxCell>
        <mxCell id="HnntwRs7b9SrRsx0hjF1-29" value="" style="shape=image;verticalLabelPosition=bottom;labelBackgroundColor=default;verticalAlign=top;aspect=fixed;imageAspect=0;image=data:image/png,iVBORw0KGgoAAAANSUhEUgAAAy4AAAH5CAYAAABnF2oVAAAgAElEQVR4nO3db2yc130v+J9FG+GKSXp97XZsRZRYC5CvWCKGW8KbLdKOQwFixWq3G0fgFgUyoCHZEGLUCKBbg8AiRJeviPQKKAy44kY2QjBv2kHaoKgxrAKI19MtDF9fAgG6KgkZkEuJrdVBbWSNLX3Z3R1pXwTzhCMOxf8zh+TnAwieOefMmUPP8Hn4neecMw8dPnz4XgAAACTsQKsHAAAAsBbBBQAASJ7gAgAAJE9wAQAAkie4AAAAyRNcAACA5AkuAABA8gQXAAAgeYILAACQPMEFAABInuACAAAkT3ABYNtduXIlFhYWsn9TU1MN2924cSNrc+vWrXX3Ozw8nJVNTU1lfbz//vt17aemplaUAbA7CS4AbLvDhw9HZ2dndHZ2xvnz56OnpyeuXLlS1+bWrVvx6aefZu2OHj26Zr+nTp2quz88PBzd3d1ZH7lcLnue/v7+6O7ujueee277fjAAWkZwAWDbnT59Ort99erVuHPnTjzzzDNZ2dTUVCwtLW0oVExNTUWlUqkrO3bsWF3Z7OxsHD58OCIiXn/99bh8+fJmfwQAEiO4ANAUn3zySXa7u7s7vv/976/7sf39/dHT07Mi6Ny8eTNyuVxdv+VyObvqMjY2tsVRA5AKwQWAHTU8PBxPPvlkdhWmv78/Dhw4EMeOHatbB7N83cr9vve978Vf//VfrygfGxuLSqWS9TE7OxtjY2Nx6tSpePXVV3fsZwKg+R5u9QAA2JsWFhYiIuLu3bvR2dm5ov7UqVNZ+dTUVLzyyivxk5/8JK5evVrX7v33349KpRIvvfRSw+e5/yrM1NRUzM7OrugHgN3NFRcAdkRtwfzLL79ct7PYs88+GxFRt/7k9OnTcffu3Th79mxdH1euXIlcLrfutTC1BfmnT5+u223sxo0b2/RTAdAqggsAO+rq1avxxhtvRE9PT0RE/OQnP6n7b83S0lK2sL7m1KlTceDAgbopZRERr7zySsNtjmsL8mtrYmrhKSJW7GoGwO4iuADQVFevXm14daW9vT3+8R//sa7s6NGjWfhYHkLeeOONFVdhli/IP3v2bNy5cyer+/DDD1eEIgB2F8EFgG3V39+/4mrIK6+8EtevX8/uz87Oxm/91m9l92vTyF566aUYHh5ec7F+I8sX5N+/29hTTz0V5XJ5wz8LAOmwOB+AbXX16tX43ve+l03rioi4fv163Xe7LF+DEvGzBfzr+QLK1dy4caNuQf7Y2Fjk8/ms/zt37tgaGWCXe+jw4cP3WvHEhUIhzp07FxcvXoyZmZlV25VKpejo6IiIiMXFxRgYGGjWEAEAgES0bKrY0NDQmm2KxWK0t7dHPp+PfD4f7e3tUSwWmzA6AAAgJS0JLuPj47G0tLRmu1wuFxMTE9n9iYmJujnLAADA/tD04FIoFOLEiRMxMjKyZruIiMnJyaysdrtWBwAA7A9NDy5DQ0Nx7dq1Ndt1dXVtqg4AANh7mrqrWG2K2OjoaPT29m6qj2q1uqLshz/8YXzxi19s2P7f/u3f4o//+I/XFZYAAIA0NS249Pb2xokTJyKfz2+pn7a2thVlHR0d8cgjjzRs/7nPfS5+7dd+TXABdp3/+Oqp+NKhR1s9DFrsnz76afyn13/c6mEAtFzTgsv58+cjIlZ8AdilS5fi2rVrMTo6Wlc+Pz+/al/31y3/boD7TU9Px717LdnxGQAA2CZNCy4XLlyou9/b2xuXLl1a9XtcJicn49y5c1EoFFYsyl++YB8AANj7WvY9LutRqVTqvu9laGgoKpVKC0cEAAC0QlLBpVQqxfj4eHZ/cHAwlpaWolwuR7lcjqWlpRgcHGzhCAEAgFZo6q5iy83MzKxYqD8wMLCiXaMyAABgf0nqigsAAEAjggsAAJA8wQUAAEie4AIAACRPcAEAAJInuAAAAMkTXAAAgOQJLgAAQPIEFwAAIHmCCwAAkDzBBQAASJ7gAgAAJE9wAQAAkie4AAAAyRNcAACA5AkuAABA8gQXAAAgeYILAACQPMEFAABInuACAAAkT3ABAACSJ7gAAADJE1wAAIDkCS4AAEDyBBcAACB5ggsAAJA8wQUAAEie4AIAACRPcAEAAJInuAAAAMkTXAAAgOQJLgAAQPIEFwAAIHmCCwAAkDzBBQAASJ7gAgAAJE9wAQAAkie4AAAAyRNcAACA5AkuAABA8gQXAAAgeYILAACQvIeb/YTT09PR1tYWERFzc3Nx4cKFVdsWCoU4d+5cXVm1Wo2+vr4dHSMAAJCWpgaXUqkUS0tLMTAwEBER5XI5xsfHVw0vXV1dggoAANC84NLb2xsdHR1x8eLFrGxubi6OHz++6mMOHToUS0tLzRgeAACQsKYFl5mZmcjn8xt6zJEjR+L27ds7NCIAAGC3aPoal5re3t44ceJEXLt2bdU27e3tcfz48SiXy1nZRsMPAACw+7VkV7FSqRSXLl2KarUao6OjDdv09vZGW1tbfPDBB5HP5yOfz0elUonp6ekmjxYAAGi1llxxqS3OHxkZiXK5HBcvXoyZmZm6No2mlg0ODka5XI5CoRCTk5NZ+Y9+9KN49NFHd37gAABAS7RsqlhExOjoaJw8eTIGBgZWBJfVVKvV6OrqqiubmJiIXC7XsP3v/d7vbXmcAABAazUtuNS+k6XR1ZUHtV9+1aU2fWx+fr6u7V/+5V+u2s/v/u7vbn7QAABAEpq2xmVycjKq1Wq89tprWVmxWFx1nUutfbFYzMpGR0djcXGxbpoYAACw9zV1qlhfX19MT09nu4Td/+WSpVIpbt++nX0hZV9fX5TL5az94uJitj4GAADYP5q+xmV5ULlfo1Bi+2MAAKAl2yEDAABshOACAAAkT3ABAACSJ7gAAADJE1wAAIDkCS4AAEDyBBcAACB5ggsAAJA8wQUAAEie4AIAACRPcAEAAJInuAAAAMkTXAAAgOQJLgAAQPIEFwAAIHmCCwAAkDzBBQAASJ7gAgAAJE9wAQAAkie4AAAAyRNcAACA5AkuAABA8gQXAAAgeYILAACQPMEFAABInuACAAAkT3ABAACSJ7gAAADJE1wAAIDkCS4AAEDyBBcAACB5ggsAAJA8wQVYYXh4OBYWFrJ/77///qp1y/9duXJlRV9XrlypazM1NVVXPzU11fB5anX3lwHAWpzH9ibBBVjhhRdeiM7OzuxfLpfLDtRjY2N1dZ2dnfHGG2/E3bt346WXXlrR1+HDh7N258+fj56enuzEMDw8HN3d3XXPU6vr7++P7u7ueO6555r3gwOwJziP7U2CC7DC/QfZH//4x9Hd3b1q+xdffDF+/OMfN6w7ffp0dvvq1atx586deOaZZyIi4tixY1GpVLL62dnZOHz4cEREvP7663H58uVN/wwA7F/OY3uT4AJsyfDwcLS3tzf8lGo1n3zySURE3Lx5M3K5XFbe3d0d5XI5+7RqbGxsewcLAPdxHts9Hm71AID0/eZv/mbdJ0rLvfjiizE7O7uufoaHh+PJJ5/MPgkbGxuLF154IRYWFiIi4vr16zE2Nha3bt2Kl19+eXsGD8C+5zy2NwguwANNTU3FwYMH4+mnn15R19/fHwcPHqy7jN5I7YB+9+7d6OzsrKu7/3L+1NRUzM7OxtWrV7c4cgBwHttLBBdgVTdu3IiDBw+uOEjXfPvb3447d+6s2U/t8f39/bGwsBDXr19veJKoLWQ8evRoTE1NRU9PT0REfPbZZw1POADwIM5je4s1LkBDt27diohY9WAf8bO5vH/xF3+x7j6vXr0ab7zxRnYgv19tIWN/f3/09PRku7RERMMtKgFgNc5je4/gAqxw48aNqFQqD/x0qL+/Pw4cOLBtCw+XL2Q8e/Zs3SdgH374YbZLCwCsxXlsbxJcgDq1+b7f+c53Htju7Nmz8dlnn60or32x1/DwcPT396/44q1XXnklrl+/vuJxp06dildffTUiVu7S8tRTT0W5XN7MjwPAPuM8tncJLkCdZ599NiIi3nzzzRXfKDw8PJy1e+aZZ+LTTz99YF9Xr16NXC5X10ejecE3btyoW8g4NjYWs7Oz2WM+/fRTW0oCsC7OY3vXQ4cPH77XzCecnp6Otra2iIiYm5uLCxcuPLB9qVSKjo6OiIhYXFyMgYGBDT/f1NRU/NEf/dHmBgzQIv/x1VPxpUOPtnoYtNg/ffTT+E+vN/5iPID9pKlXXEqlUiwtLUU+n498Ph8nTpyI8fHxVdsXi8Vob2/P2re3t0exWGziiAEAgBQ0Lbj09vZGR0dHjIyMZGVzc3Nx/PjxVR+Ty+ViYmIiuz8xMVE3XxAAANgfmhZcZmZmIp/Px8zMzLraFwqFiIiYnJzMymq3a3UAAMD+0LLF+b29vXHixIl45513GtZ3dXWt+tgH1QEAAHvPw6140tqC+2q1GqOjoxt6bLVaXVH2ta99LR577LGG7Q8csHEaAADsdi0JLrWdwUZGRqJcLsfFixfXPYWstiPZchcvXowvfOELDdvfu9fUTdMg8+iTnfE//M/fbPUwaLG7d+/GX//vtsAEdp9f+e+fil87+R9aPQxa7P/+6X+LH13+z60eRkS0KLjUjI6OxsmTJ2NgYGBFcJmfn1/1cffXnTlzZtW209PTWxskbFLHFx+NL/z7X2z1MGixe+HDE2B3+sXOfxf/7hcbfzDM/tHxxf+u1UPING0eVaFQiHK5HL29vetq32ghfqMF+wAAwN7XtOAyOTkZ1Wo1XnvttaysWCw+cJ1LpVKJoaGh7P7Q0FBUKpUdHysAAJCWpq5c7+vri8cffzzK5XKUy+V4/PHHo6+vL6svlUp1X0g5ODgYS0tLWfulpaUYHBxs5pABAIAENH2Ny/Kgcr/aov21ygAAgP3FXsEAAEDyBBcAACB5ggsAAJA8wQUAAEie4AIAACRPcAEAAJInuAAAAMkTXAAAgOQJLgAAQPIEFwAAIHmCCwAAkDzBBQAASJ7gAgAAJE9wAQAAkie4AAAAyRNcAACA5AkuAABA8gQXAAAgeYILAACQPMEFAABInuACAAAkT3ABAACSJ7gAAADJE1wAAIDkCS4AAEDyBBcAACB5ggsAAJA8wQUAAEie4AIAACRPcAEAAJInuAAAAMkTXAAAgOQJLgAAQPIEFwAAIHmCCwAAkDzBBQAASJ7gAgAAJE9wAQAAkie4AAAAyRNcAACA5AkuAABA8gQXAAAgeYILAACQvIeb+WS9vb1x6dKl7P7i4mIMDAys2r5QKMS5c+fqyqrVavT19e3YGAEAgPQ0NbhcunQp5ubm4sKFCxERMT09HaVSadXw0tXVJagAAADNmyo2MjIS1Wo1Cy0RERMTE9HR0bHqYw4dOhRLS0vNGB4AAJCwpgWX0dHRVa+c9Pb2Niw/cuRI3L59eyeHBQAA7AJNnSp2vzNnzkS1Wo2ZmZmG9e3t7XH8+PEol8tZWT6fb9bwAACARLQsuIyMjEQul4u33nqrYX1vb2+0tbXVrYkpFosxPT294srNH/7hH8bhw4cb9tPW1ra9AwcAAJquJcGlUCjEyZMnY25uLiYnJxu2mZmZWXF1ZXBwMMrlchQKhbrHPfbYY/Hoo4827OfevXvbN3AAAKAlmh5cRkZGstCyfKH+elWr1ejq6qor+/3f//1V209PT2/4OQAAgLQ09Qsoa6Hl2rVra4aWQqFQt7Yl4ufTx+bn53dymAAAQGKaFlx6e3uzKy2jo6Nrtp+cnIxqtRrFYjErGx0djcXFxVWnlwEAAHtT06aKnT9/PiIiTpw4seJKysWLF2NmZiZKpVLcvn07uxrT19cX5XI5a7+4uLjql1UCAAB7V9OCy3rWszQKJbY/BgAAmrrGBQAAYDMEFwAAIHmCCwAAkDzBBQAASJ7gAgAAJE9wAQAAkie4AAAAyRNcAACA5AkuAABA8gQXAAAgeYILAACQPMEFAABInuACAAAkT3ABAACSJ7gAAADJE1wAAIDkCS4AAEDyBBcAACB5ggsAAJA8wQUAAEie4AIAACRPcAEAAJInuAAAAMkTXAAAgOQJLgAAQPIEFwAAIHmCCwAAkDzBBQAASJ7gAgAAJE9wAQAAkie4AAAAyRNcAACA5AkuAABA8gQXAAAgeYILAACQPMEFAABInuACAAAkT3ABAACSJ7gAAADJE1wAAIDkCS4AAEDyBBcAACB5ggsAAJC8h5v5ZL29vXHp0qXs/uLiYgwMDDzwMaVSKTo6OtbdHgAA2HuaesXl0qVLMTc3F/l8PvL5fLS3t0epVFq1fbFYjPb29rr2xWKxiSMGAABS0LTgMjIyEtVqNS5cuJCVTUxMZFdTGsnlcjExMVHXPpfL7eg4AQCA9DQtuIyOjkZfX1/Dut7e3hVlhUIhIiImJyezstrtWh0AALA/tHRx/pkzZ6JarcbMzMyKuq6urlUf96A6AABg72nq4vzlRkZGIpfLxVtvvbWhx1Wr1RVlxWIxHn/88Ybt29raNjU+AAAgHS0JLoVCIU6ePBlzc3N1U8HWo1EQ+au/+qt44oknGrb/7d/+7U2NEQAASEfTg8vIyEgWWpYv1L/f/Pz8uut+8IMfrNr29OnTGx8kAACQlKaucamFlmvXrj0wtEQ0XojfaME+AACw9zUtuPT29mZXWkZHR9f1mEqlEkNDQ9n9oaGhqFQqOzVEAAAgUU2bKnb+/PmIiDhx4kSUy+W6uosXL8bMzEyUSqW4fft2djVmcHAwSqVS1n5xcTEGBwebNWQAACARTQsua00Ni4gYGBhYVxkAALC/tPR7XAAAANZDcAEAAJInuAAAAMkTXAAAgOQJLgAAQPIEFwAAIHmCCwAAkDzBBQAASJ7gAgAAJE9wAQAAkie4AAAAyRNcAACA5AkuAABA8gQXAAAgeYILAACQPMEFAABInuACAAAkT3ABAACSJ7gAAADJE1wAAIDkCS4AAEDyBBcAACB5ggsAAJA8wQUAAEie4AIAACRPcAEAAJInuAAAAMkTXAAAgOQJLgAAQPIEFwAAIHmCCwAAkDzBBQAASJ7gAgAAJE9wAQAAkie4AAAAyRNcAACA5AkuAABA8gQXAAAgeYILAACQPMEFAABInuACAAAkT3ABAACS93CrnrhUKsV7770Xo6Ojq7YpFApx7ty5urJqtRp9fX07PTwAACAhLQkuxWIxOjo61mzX1dUlqAAAAM0PLtPT09HW1hbVanXNtocOHYqlpaUmjAoAAEhZU9e4jIyMxMcffxz5fH5d7Y8cORK3b9/e4VEBAACpa+oVlwetZ2mkvb09jh8/HuVyOStbb+gBAAD2jpYtzl9Lb29vtLW1xdzcXFy4cCEifrY2Znp6esWal1/91V+NX/iFX2jYz4EDNk4DAIDdLtngMjMzs+LqyuDgYJTL5SgUCjE5OZmVj46Oxhe+8IWG/dy7d29HxwkAAOy8ZIPLaqrVanR1ddWVffOb34xHHnmkYfs/+7M/a8awAACAHZRscKl9h8vyqy616WPz8/N1bX/605+u2o8rLgAAsPsluwBkcnIyqtVqFIvFrGx0dDQWFxfrpokBAAB7X1LBpVQqxfj4eHa/r68vcrlclMvlbGexgYGBVg0PAABokZZNFbt/Z7CIxqHE9scAAEBSV1wAAAAaEVwAAIDkCS4AAEDyBBcAACB5ggsAAJA8wQUAAEie4AIAACRPcAEAAJInuAAAAMkTXAAAgOQJLgAAQPIEFwAAIHmCCwAAkDzBBQAASJ7gAgAAJE9wAQAAkie4AAAAyRNcAACA5AkuAABA8gQXAAAgeYILAACQPMEFAABInuACAAAkT3ABAACSJ7gAAADJE1wAAIDkCS4AAEDyBBcAACB5ggsAAJA8wQUAAEie4AIAACRPcAEAAJInuOwjN27ciIWFhVhYWIgbN26s6zG3bt2K4eHhurKpqamsn/fff39F3f1lAACwVYLLPnHjxo349NNPo7OzMzo7O6O9vf2BAeP999+PhYWFOHCg/i0yPDwc3d3dWT+5XC6uXLkSERH9/f3R3d0dzz333I7+LAAA7D+Cyz4wPDwcBw8ejO985ztZ2eXLl+PJJ59s2P7KlSuRy+Wis7Mz7t69W1d37NixqFQq2f3Z2dk4fPhwRES8/vrrcfny5R34CQAA2O8El33g2LFjcffu3bh69WpWNjY2FhGxYhpYRMRLL70UR48ebdjXzZs3I5fLZfe7u7ujXC5nV11q/QIAwHZ6uNUDYOfdvHlzxZSv/v7+TfU1NjYWL7zwQiwsLERExPXr12NsbCxu3boVL7/88pbHCgAAjbjisg+MjY3F3bt369a0vP7665vu77nnnsvWuJw+fTqmpqZidna27ooOAABsJ8Flnzh69Gg8+eST2W5gf/M3f7Mt/dYW5NcCzEZ3LQMAgPUQXPaR2lWSzs7O+OEPfxgRW1+TUluQ39/fHz09PVn/EZGtewEAgK0SXPapb3/723Hnzp0t9bF8Qf7Zs2fr+vvwww+z3cYAAGCrBJd96MqVK9HT05Ntjzw8PBwLCwsNdxh7kFOnTsWrr74aESt3G3vqqaeiXC5v36ABANjX7Cq2T9y4cSMOHjyY3a9N59pKf8sX5I+NjUU+n892G7tz546tkQEA2DYtCy6lUinee++9GB0dXbNdR0dHREQsLi7GwMBAM4a35zz99NOr1o2Nja0aMlb7PpdG/Z0+fXpzgwMAgDW0ZKpYsVjMwsha7drb2yOfz0c+n4/29vYoFotNGCEAAJCSpgeX6enpyOVyUa1W12yby+ViYmIiuz8xMVG3jgIAANgfmhpcRkZG4uOPP458Pr9m20KhEBERk5OTWVntdq0OAADYH5q6xmWt9SzLdXV1baoOAADYe3bdrmKNppj9wR/8QXzpS19q2P7AATs+AwDAbrfrgktbW9uKsqeffjqeeOKJbX+uC//T/xYH2z+/7f2yu/zXuf8c/8f/+XarhwEAsK8lG1zm5+fXXXf+/PlV205PT296DJ975HNx4CFXbPa7zz3S3uohAADse8n+Vd5oIX6jBfsAAMDel2xwiYioVCoxNDSU3R8aGopKpdLCEQEAAK2QVHAplUoxPj6e3R8cHIylpaUol8tRLpdjaWkpBgcHWzhCAACgFVq2xqWvr29F2cDAwLrKAACA/SWpKy4AAACNCC4AAEDyBBcAACB5ggsAAJA8wQUAAEie4AIAACRPcAEAAJInuAAAAMkTXAAAgOQJLgAAQPIEFwAAIHmCCwAAkDzBBQAASJ7gAgAAJE9wAQAAkie4AAAAyRNcAACA5AkuAABA8gQXAAAgeYILAACQPMEFAABInuACAAAkT3ABAACSJ7gAAADJE1wAAIDkCS4AAEDyBBcAACB5ggsAAJA8wQUAAEie4AIAACRPcAEAAJInuAAAAMkTXAAAgOQJLgAAQPIEFwAAIHmCCwAAkDzBBQAASJ7gAgAAJE9wAQAAkie4AAAAyRNcAACA5AkuAABA8gQXAAAgeQ83+wlLpVJ0dHRERMTi4mIMDAys2rZQKMS5c+fqyqrVavT19e3oGAEAgLQ0NbgUi8Vob2+PfD4fERHT09NRLBZjcHCwYfuuri5BBQAAaO5UsVwuFxMTE9n9iYmJyOVyq7Y/dOhQLC0tNWNoAABAwpoWXAqFQkRETE5OZmW127W6+x05ciRu376984MDAACS1rSpYl1dXRuua29vj+PHj0e5XM7KatPMAACA/aPpi/PvV61WG5b39vZGW1tbzM3NxYULFyLiZ2tkpqenV6x5+cEPfrDqlLMDB2ycBgAAu13Lg0tbW1vD8pmZmRVXVwYHB6NcLkehUKibcvbuu+/GoUOHGvbzG7/xG9s3WAAAoCWaFlzm5+c3VXe/arW6YmrZ5cuXV20/PT297r4BAIA0NW0eVaOF+I0W7C+vW762JeLn08c2EnQAAIDdr6kLQCqVSgwNDWX3h4aGolKpNGw7OTkZ1Wo1isViVjY6OhqLi4sNgw4AALB3NTW4DA4OxtLSUpTL5SiXy7G0tFT35ZOlUinGx8ez+319fZHL5bL2EREDAwPNHDIAAJCApi/Of1DwaFRn+2MAAMBewQAAQPIEFwAAIHmCCwAAkDzBBQAASJ7gAgAAJE9wAQAAkie4AAAAyRNcAACA5AkuAABA8gQXAAAgeYILAACQPMEFAABInuACAAAkT3ABAACSJ7gAAADJE1wAAIDkCS4AAEDyBBcAACB5ggsAAJA8wQUAAEie4AIAACRPcAEAAJInuAAAAMkTXAAAgOQJLgAAQPIEFwAAIHmCCwAAkDzBBQAASJ7gAgAAJE9wAQAAkie4AAAAyXu41QMAAFiP999/P5588smIiLh7924cPXp0U22npqaip6cnIiLu3LkTzz33XF3dY489VlcGpMEVFwAgeVNTU5HL5aKzszM6OztjaWkpbty4seG2w8PD0d3dndXlcrm4cuVKRET09/dHd3e30AKJElwAgOT19PTE5cuXs/vf//734+DBg9Hf37+htseOHYtKpZLVzc7OxuHDhyMi4vXXX697HJAWwQUASNrw8HBERIyNjWVltdvPPvvshtrevHkzcrlcVtfd3R3lcjm76rL8cUBarHEBAJJ27NixuHv37oryu3fvxrFjxzbU9qWXXooXXnghFhYWIiLi+vXrMTY2Frdu3YqXX355Z34AYFsILgDAvnL/GpapqamYnZ2Nq1evtmhEwHoILgDAvlVbkH/06NG63cY+++yzePrpp1s8OmA5a1wAgKTdvHkzDhxY+SfLgQMH4ubNm5tuG/HzBfn9/f3R09OT7TYWEdm6FyANggsAkLTagvnawvvlt+9fTL+RtssX5J89ezbu3LmT1X344YfZbmNAGgQXACB5d+7ciRdffDG7/+KLL8b169cj4mfBZGFhIQsoD2q73KlTp+LVV1+NiFix29hTTz0V5XJ5R34WYHMEFwAgebUF9QsLC7GwsBCffvppnD59etNtb9y4Ubcgf2xsLPOX9u0AAAplSURBVGZnZ+seY2tkSEvTF+eXSqXo6OiIiIjFxcUYGBjY1vYAwN602mL5sbGxFSFjrYX1jepXC0JAGpp6xaVYLEZ7e3vk8/nI5/PR3t4exWJx29oDAAB7U1ODSy6Xi4mJiez+xMRE3XzSrbYHAAD2pqYFl0KhEBERk5OTWVntdq1uK+0BAIC9q2nBpaura0N1G20PAADsXU1fnH+/arW65fa//Mu/HJ///Oe3a0gAAEBiWh5c2trattz++9//fjz00EOrPubMmTNx5syZDY/t1t9/HEuL/++GH7dX3Lt374H/X/eL/P9yPr7z2O9v+HGf/T//X1xf+JcdGBG7yYGHIl7Z5HdBfPrTW/HZv1a2eUTsNsf+Qy7+x2/8r60eBvvQp//tk/in/+tmq4fRcvv976H2Rzrid8uvbuqx1Wo1+vr6tm0sTQsu8/PzG6rbSPvx8fFVF+1//etfj3/4h3+IqampdY6Umq9+9avx5S9/Of7kT/6k1UNprf/a6gHsXufPn49PPvkkfvSjH7V6KC31X1o9gF3qiSeeiG984xvx53/+5/HP//zPrR4Ou9DXv/71eOyxx+LNN99s9VDYpb71rW/F3/3d38Xf/u3ftnooLfbOhh/xta99bc1tyTeqacFlcnIyzp07F4VCYcUi++UL8DfT/k//9E9Xfd7f+Z3fidnZWdsob8Iv/dIvxZe//GX/79i0b37zm/Ev//Iv3kNsyq/8yq/EN77xjbh27Vr8/d//fauHwy701a9+NT7/+c87BrFp3/rWt+KDDz7wHtqEo0ePbntwaep2yJVKJYaGhrL7Q0NDUamsPg1io+0BAIC9qanBZXBwMJaWlqJcLke5XI6lpaUYHBzM6kulUoyPj6+7PQAAsD80fXH+wMDAhuoe1B4AANgfmnrFBQAAYDMEFwCSdODAgbr/ArC/PXT48OF7rR4EAADAg/gYCwAASJ7gAgAAJK/pu4qxfaanp6OtrW1F+bVr12J0dHRbnqO3tzcuXboUb7311oov/nxQHbtbqVSKjo6OVesrlcqGtiZfrb+N9sPOKhQKce7cubh48WLMzMxs+PGrHZMiYtN9sjds9b31oGPS3NxcXLhwYatDdE7bo5x/9hbBZZe7/4BdOznMz8878LJpy7ch3+ofHDWN/riYnp6OUqlk2/M9pNHrPD4+HpcuXYp8Pt+iUbEXNHpv1Y5PIyMjW/7AbmZmxnt0j3L+2TtMFdtjJicnY3FxMX7913+91UOBNfX19UVHR0eMjIy0eijsoNofDF5nttvk5GRUKpX4yle+0uqhsMs4/+xOrrjsA7VPpJa7fzpZsViMXC6X3V/t0nutr8XFxYa/7MunilSr1ejr66urL5fLdc9x4sQJn3DtUmu91us1Nze34o+O7eqbrSmXy3Ht2rU4efJkVrYdU77K5XJUKpXsmFPrcyvHj8302ejYuPx4tFY9m7dT762a1V73UqkU//qv/1o3RWh8fDyOHz8er7322oqpYuvtpzbNbPnPMD4+HkeOHPGJfsI2ev5Zz/vW+WtnueKyxxQKhWhvb89CR29vb5w7dy6uXbsW+Xw+8vl8VCqVul+6YrEYjz/+eFafz+fjxIkTMT4+vqLvWl+NDsTT09OxtLSU9bG0tBTT09N19XNzc3XPwe601mu9ER999FG0t7fvSN9s3fPPP1937Pjud7+74T6KxWJERN2HJcuPObWAsdXjR6M+P/7446zsgw8+yPqsHRvfeuutup+vVCqtq56t2473VqFQiFwuF++9915W9qDX/b333qv7kC4i4vjx4/HBBx+s6PtB/dy+fTsef/zxrO358+fr/lvr9/bt2xv+mWiezZx/HvS+fdB7hu0huOxyJ06ciHK5nP07d+5c3eLY2pzd5X8wXL9+Pbvd29sbuVwuJiYm6vrN5/N1V1y6urri3LlzMTc313AecaFQiLa2trqrMCMjI9HW1haFQiG7vbzPa9eube2HpyXWeq03o/ae3Ym+2Zp33nknu/3222+vuvi+5v5jUrlcjlwut+JKxfI/FLfr+NGoz+WfrF+4cCF7nu7u7hWPHxwczD6UWauerduO91btw7TaeWmt1315u+Xt33zzzbrnWqufN998M9ra2qK3tzciIo4cORKVSiWOHDkSET87tzbql/Rs9Pyz2vt2rfcM28NUsV1uIwvOlk+zqKmdnNdayF+7QvPuu+82rO/q6opqtVp3uXRmZiaq1Wq23mZxcbHuMfPz8w98TtK01mu9mU0hqtXqjvXN1mz093S9Ozx99NFH2e3tOn4s77P2uEbHvUOHDsXo6GicOXMmzp07l00HWx6uJicnH1jP1m3lvVWbAXD/h2lrve4Rka0Drb3Gi4uLMTMzk4WQ9fRTe3+eP38+ZmZmoqOjIwYGBrL2AwMDK97TpGmj55/V3rfree+xdYLLHvTOO+/UTQWr/RLVDvqN5m2v5dq1a/H888/H0NDQhv94/Oijj/zS7hPL/3Bcr56enlhaWtqRvtn9tnL8WGt++f3rE2rHylpAWaue1pmcnIyurq44efLkih3F1nrd33vvvXj++ecjIiKXy6169X+tfj7++OM4cuRIFAqFLFjX1n9+5StfaTj9jLRs9/nHmpadZ6rYHlX7BGFkZCSq1Wrd1K+urq6s3ezsbETEmtNw5ufnY2JiItra2lasfanVL79sHvHzS+Xz8/Px0UcfrdhHffk42D3Weq03avn89O3um91hJ44f77777oo+V1ObUlsLJPdP61irntYYHR2NxcXFug/q1vO6j46O1p3LGk1/Xk8/b7/9dnR0dMSZM2eytSy3b9+Onp6e6OjoWHWGAunYzvPPRo45bJ7gsgc9//zzdZ/0LP9F6u3tzQ7yvb29MTMzE5VKJYaGhur6KJVKKxah1radPHHixIpfzMnJyahWq3UngNHR0ahWqzE5OZndXh56lp9s2D3Weq03Ynp6OhYXF7O+trNvdo+dOH406rNQKES5XI5CoVB3e3l9xM+Of2vVk4ZaiKxtALHW615TO5dVKpWG/a6nn9oxKZfLZWtZ3n333cjlco5Zu8B2n3/W+95ja0wV2+VqixWXq1Qq2dWV0dHR6OnpiUuXLmX1Fy9ejEuXLsXAwEDMzMzE4OBgFIvFun5q3yh7f0AZHByM6enp+O53vxuvvfZaXV1fX19MT09n/dx/ybSvry9bUBnx8+1M2X3Weq0bWe29ev83F2+mb3a/nTh+3N9nRNRtdVvbdGT51Nna1qYzMzMPrCcNMzMz2XthfHw8Lly4sObrHvGzTWpyuVy8/fbbq/a9nn4WFxejvb09e09MTk7G0NBQfPzxx9v5Y7JFzTr/rOc9w9Y8dPjw4XutHgT708jISDz//PP+KAU2zPEDYP8xVYymGBkZiXK5XHcF5/nnn/epFLAmxw8AIlxxoYmKxWLdF381ukwL0IjjBwCCCwAAkDxTxQAAgOQJLgAAQPIEFwAAIHmCCwAAkDzBBQAASJ7gAgAAJE9wAQAAkie4AAAAyRNcAACA5AkuAABA8gQXAAAgeYILAACQPMEFAABI3v8PCXlQsewtZW4AAAAASUVORK5CYII=;" vertex="1" parent="1">
          <mxGeometry x="-375.8" y="-994" width="212.8" height="132.02" as="geometry" />
        </mxCell>
      </root>
    </mxGraphModel>
  </diagram>
</mxfile>
